# xmcd CD database file
#
# Track frame offsets:
#	200
#	8515
#	32250
#	40577
#	66365
#	87002
#	94357
#	109727
#	141917
#	154597
#	181062
#	191995
#	215462
#	248680
#
# Disc length: 3460 seconds
#
# Revision: 2
# Processed by: cddbd v1.5.2PL0 Copyright (c) Steve Scherf et al.
# Submitted via: CDex 1.82
#
DISCID=ae0d820e
DTITLE=Sarah Vaughan - The Complete Sarah Vaughn, Live in Japan [CD1]
DYEAR=1973
DGENRE=Jazz
TTITLE0=A Foggy Day
TTITLE1=Poor Butterfly
TTITLE2=The Lamp Is Low
TTITLE3='Round Midnight
TTITLE4=Willow Weep For Me
TTITLE5=There Will Never Be Another You
TTITLE6=Misty
TTITLE7=Wave
TTITLE8=Like Someone In Love
TTITLE9=My Funny Valentine
TTITLE10=All of Me
TTITLE11=Love Story (Where Do I Begin)
TTITLE12=Over the Rainbow
TTITLE13=I Could Write A Book
EXTD=YEAR: 1973
EXTT0=
EXTT1=
EXTT2=
EXTT3=
EXTT4=
EXTT5=
EXTT6=
EXTT7=
EXTT8=
EXTT9=
EXTT10=
EXTT11=
EXTT12=
EXTT13=
PLAYORDER=
